<?xml version="1.0" encoding="UTF-8"?>
<svg version="1.1" xmlns="http://www.w3.org/2000/svg" width="500" height="500">
<path d="M0 0 C0.64259766 0.21430664 1.28519531 0.42861328 1.94726562 0.64941406 C11.94256051 4.04544155 23.13658169 8.71625434 29 18 C29.25 20.75 29.25 20.75 28 24 C25.19441873 26.91612011 22.16377898 29.48175976 19 32 C15.46470188 30.52761526 13.52595994 28.58999241 11.0625 25.6875 C10.36125 24.88054687 9.66 24.07359375 8.9375 23.2421875 C8.298125 22.50226563 7.65875 21.76234375 7 21 C-2.08615691 10.98192956 -12.39224333 6.7596112 -25.71484375 5.99609375 C-33.61231021 6.00548432 -41.85867596 7.12701229 -47.80859375 12.69140625 C-53.17299467 18.39038519 -56.10454388 23.73069974 -56.25 31.625 C-56.12798558 35.14511613 -55.70869768 38.54509879 -55 42 C-54.34 42 -53.68 42 -53 42 C-51.61558 43.96498322 -50.28796166 45.97048465 -49 48 C-46.74852034 51.41931863 -46.74852034 51.41931863 -43 53 C-41.6434836 54.30973998 -40.31442362 55.64802142 -39 57 C-29.99588098 65.10370712 -18.82955863 72.58522069 -8 78 C-8 78.66 -8 79.32 -8 80 C-7.30261719 80.24492187 -6.60523438 80.48984375 -5.88671875 80.7421875 C3.52942578 84.8450272 12.1680979 92.45805825 20 99 C20.73605469 99.58910156 21.47210938 100.17820312 22.23046875 100.78515625 C38.03632822 113.9613683 48.29079377 131.63424279 51 152 C51.12890625 152.9384375 51.2578125 153.876875 51.390625 154.84375 C52.44975593 163.87423479 52.00100043 172.52114634 50.6875 181.5 C50.56955078 182.38558594 50.45160156 183.27117187 50.33007812 184.18359375 C47.88650537 201.25100963 39.55378723 218.10693841 27 230 C26.11606481 231.09702671 25.24118826 232.20140733 24.375 233.3125 C23.59125 234.199375 22.8075 235.08625 22 236 C21.01 236 20.02 236 19 236 C19 236.66 19 237.32 19 238 C-1.92323665 255.47714444 -31.1709879 259.91515736 -57.4765625 257.6484375 C-64.39445565 256.94638191 -70.66039025 255.85001925 -77 253 C-78.92751994 252.22167164 -80.86106917 251.45935624 -82.79467773 250.69628906 C-91.4095092 247.2952454 -91.4095092 247.2952454 -94 246 C-94 245.34 -94 244.68 -94 244 C-94.72445312 243.74863281 -95.44890625 243.49726563 -96.1953125 243.23828125 C-99.23126461 241.89789571 -101.35970554 240.34405574 -103.875 238.1875 C-105.07769531 237.18783203 -105.07769531 237.18783203 -106.3046875 236.16796875 C-108 234 -108 234 -107.94921875 231.4140625 C-106.47508506 227.66503114 -104.19440444 226.37881182 -101 224 C-99.96939453 225.08861328 -99.96939453 225.08861328 -98.91796875 226.19921875 C-95.97376132 229.1413506 -92.74550404 231.47588003 -89.3125 233.8125 C-88.73177734 234.21919922 -88.15105469 234.62589844 -87.55273438 235.04492188 C-84.55333643 237.28899053 -84.55333643 237.28899053 -81 238 C-81 238.66 -81 239.32 -81 240 C-80.319375 239.938125 -79.63875 239.87625 -78.9375 239.8125 C-75.87704979 240.00784789 -73.90142113 240.92995108 -71.15234375 242.19921875 C-59.42759315 246.56142179 -48.43477619 245.33457795 -37 241 C-31.15363594 238.25309025 -25.95613029 235.15675444 -21 231 C-20.34 231 -19.68 231 -19 231 C-18.773125 230.443125 -18.54625 229.88625 -18.3125 229.3125 C-16.64123288 226.3678865 -14.39147596 224.39147596 -12 222 C-3.44547344 210.33473651 -1.72648641 199.20905011 -3 185 C-4.06211277 180.56226148 -5.35948416 176.63268521 -8.63671875 173.37109375 C-10 172 -10 172 -10 170 C-17.07375175 166.19105675 -23.40614785 164.82094836 -31.2265625 166.828125 C-35.4537043 168.10676383 -39.62033207 169.44496118 -43.71875 171.09375 C-49.96822037 173.57641631 -57.04569371 174.03947814 -63.375 171.8125 C-66.52055271 169.64057075 -67.11740795 168.69083948 -68 165 C-68.15767402 163.48034863 -68.30255866 161.95933844 -68.4375 160.4375 C-68.72595972 156.91272448 -68.72595972 156.91272448 -70.5625 153.9375 C-72.87759582 150.81715346 -72.19025728 147.8051457 -72 144 C-72.639375 143.71125 -73.27875 143.4225 -73.9375 143.125 C-76 142 -76 142 -77 140 C-77.1549534 136.43607185 -76.93475636 133.42743998 -76 130 C-76.721875 129.57589844 -77.44375 129.15179688 -78.1875 128.71484375 C-85.72881356 123.94915254 -85.72881356 123.94915254 -87 119.5 C-85.33879479 113.68578175 -81.48452027 110.45078118 -77.25 106.3125 C-75.23055561 104.23695993 -74.08104997 102.65348629 -73 100 C-72.34 100 -71.68 100 -71 100 C-70.86722656 99.18015625 -70.73445313 98.3603125 -70.59765625 97.515625 C-70.42105469 96.43796875 -70.24445313 95.3603125 -70.0625 94.25 C-69.88847656 93.18265625 -69.71445313 92.1153125 -69.53515625 91.015625 C-69.22441696 89.26459776 -68.87878884 87.51771614 -68.4453125 85.79296875 C-67.28008266 81.10138545 -67.97193335 77.30964164 -70 73 C-70.66 73 -71.32 73 -72 73 C-73.0076952 71.2335343 -74.00591714 69.46166177 -75 67.6875 C-75.556875 66.70136719 -76.11375 65.71523437 -76.6875 64.69921875 C-78 62 -78 62 -78 59 C-78.66 58.67 -79.32 58.34 -80 58 C-83.33132682 47.82094583 -83.36235518 35.29460106 -78.84765625 25.5 C-70.97363368 11.540514 -60.052214 2.2111803 -45 -3 C-30.44826169 -6.37829775 -14.01288032 -4.80015687 0 0 Z " fill="#AB6B5B" transform="translate(283,76)"/>
<path d="M0 0 C3.13872813 1.37447572 5.02470742 2.90777993 7.3125 5.4375 C19.34830073 17.69414111 34.89513531 25.97136889 49.61865234 34.52050781 C69.08742139 45.83998281 88.73919313 57.32979513 96 80 C96.24363281 80.74636719 96.48726563 81.49273437 96.73828125 82.26171875 C100.95643444 97.78567029 97.39229217 116.00613347 90 130 C78.60300665 148.82499485 62.05507135 162.22460238 40.625 167.9375 C32.81325028 169.53690943 24.92968015 169.25640882 17 169 C17 168.34 17 167.68 17 167 C18.21623047 166.67128906 18.21623047 166.67128906 19.45703125 166.3359375 C29.42508842 163.48129016 38.0130476 159.69873427 46 153 C46.66 153 47.32 153 48 153 C48.226875 152.443125 48.45375 151.88625 48.6875 151.3125 C50.35876712 148.3678865 52.60852404 146.39147596 55 144 C63.55452656 132.33473651 65.27351359 121.20905011 64 107 C62.93788723 102.56226148 61.64051584 98.63268521 58.36328125 95.37109375 C57 94 57 94 57 92 C49.92624825 88.19105675 43.59385215 86.82094836 35.7734375 88.828125 C31.5462957 90.10676383 27.37966793 91.44496118 23.28125 93.09375 C17.03177963 95.57641631 9.95430629 96.03947814 3.625 93.8125 C0.47944729 91.64057075 -0.11740795 90.69083948 -1 87 C-1.15767402 85.48034863 -1.30255866 83.95933844 -1.4375 82.4375 C-1.72595972 78.91272448 -1.72595972 78.91272448 -3.5625 75.9375 C-5.87759582 72.81715346 -5.19025728 69.8051457 -5 66 C-5.639375 65.71125 -6.27875 65.4225 -6.9375 65.125 C-9 64 -9 64 -10 62 C-10.1549534 58.43607185 -9.93475636 55.42743998 -9 52 C-9.721875 51.57589844 -10.44375 51.15179688 -11.1875 50.71484375 C-18.72881356 45.94915254 -18.72881356 45.94915254 -20 41.5 C-18.33879479 35.68578175 -14.48452027 32.45078118 -10.25 28.3125 C-8.23055561 26.23695993 -7.08104997 24.65348629 -6 22 C-5.34 22 -4.68 22 -4 22 C-3.87882813 21.24976563 -3.75765625 20.49953125 -3.6328125 19.7265625 C-2.55134875 13.12131468 -1.36279301 6.55300468 0 0 Z " fill="#F3D2C2" transform="translate(216,154)"/>
<path d="M0 0 C7.06181084 6.54509297 8.7721359 16.1050127 11.20117188 25.09350586 C12.45305361 29.64841173 13.81096345 34.16892992 15.1875 38.6875 C15.48648193 39.66936279 15.78546387 40.65122559 16.09350586 41.6628418 C19.52648713 52.84285542 23.258373 63.92036851 27 75 C28.10722467 78.29064738 29.21133464 81.5823202 30.3125 84.875 C30.55645508 85.60372314 30.80041016 86.33244629 31.05175781 87.08325195 C32.61562617 91.77868467 34.09397766 96.49170384 35.45703125 101.25 C35.97386506 103.08279632 35.97386506 103.08279632 37 105 C36.67 105.66 36.34 106.32 36 107 C36.99 107.495 36.99 107.495 38 108 C37.67 108.66 37.34 109.32 37 110 C37.99 110.495 37.99 110.495 39 111 C39.78125 113.328125 39.78125 113.328125 40.5 116.25 C41.21399401 119.12149765 41.92624931 121.82108629 43.0546875 124.55859375 C44.01990145 127.05139837 44.38738608 129.15914455 44.625 131.8125 C44.69976562 132.60269531 44.77453125 133.39289063 44.8515625 134.20703125 C44.90054688 134.79871094 44.94953125 135.39039063 45 136 C44.01 136 43.02 136 42 136 C39 129.375 39 129.375 39 126 C38.34 126 37.68 126 37 126 C36.66226563 124.97519531 36.32453125 123.95039063 35.9765625 122.89453125 C35.5261226 121.53382737 35.07559724 120.17315178 34.625 118.8125 C34.40328125 118.13896484 34.1815625 117.46542969 33.953125 116.77148438 C32.74444911 113.12768205 31.43278202 109.5599383 30 106 C29.39073171 104.39385305 28.78677116 102.78568496 28.1875 101.17578125 C27.83872803 100.24145264 27.48995605 99.30712402 27.13061523 98.34448242 C26.75751221 97.34392822 26.38440918 96.34337402 26 95.3125 C23.43591041 88.43924884 20.84587354 81.57809297 18.18359375 74.7421875 C17.72533203 73.56358154 17.26707031 72.38497559 16.79492188 71.1706543 C15.90074275 68.87618422 15.00240584 66.58332947 14.09960938 64.29223633 C13.49149414 62.73025513 13.49149414 62.73025513 12.87109375 61.13671875 C12.50943115 60.21592529 12.14776855 59.29513184 11.77514648 58.34643555 C11 56 11 56 11 53 C10.34 52.67 9.68 52.34 9 52 C6 45.76923077 6 45.76923077 6 42 C5.01 42.495 5.01 42.495 4 43 C0.83311024 54.86606226 0.82469332 65.83092172 6.4375 76.8125 C7.95718776 79.06678709 7.95718776 79.06678709 10 81 C12.15046732 83.15046732 13.45276146 85.39782608 15 88 C15.66 88.33 16.32 88.66 17 89 C19.30072954 93.2013322 21.15317513 97.58367966 23 102 C23.391875 102.804375 23.78375 103.60875 24.1875 104.4375 C25.59151142 108.865536 26.02030908 112.84556251 24.01953125 117.0703125 C22.7713088 118.96761062 21.73975632 120.53494204 20 122 C18.68 122 17.36 122 16 122 C16.01160156 120.68644531 16.02320313 119.37289062 16.03515625 118.01953125 C16.04453828 116.28385559 16.05363804 114.54817839 16.0625 112.8125 C16.07087891 111.94818359 16.07925781 111.08386719 16.08789062 110.19335938 C16.18616471 104.01956067 16.18616471 104.01956067 15 98 C14.34 97.67 13.68 97.34 13 97 C12.05825491 95.72004305 11.17049951 94.40003896 10.3125 93.0625 C8.06893751 89.61213128 5.76235022 86.22755849 3.375 82.875 C-4.23883393 72.02697113 -6.21078592 63.19785417 -5 50 C-4.27818975 46.24534375 -3.12125078 42.66404306 -1.875 39.05078125 C0.07604756 32.2482449 -1.6116717 27.76354029 -4.375 21.5625 C-10.37528888 7.84232725 -10.37528888 7.84232725 -9.3125 2.625 C-7.1611657 -1.67766861 -4.16637961 -1.48799272 0 0 Z M-3 7 C-2.62590749 12.15998377 -2.62590749 12.15998377 0.0625 16.4375 C0.701875 16.953125 1.34125 17.46875 2 18 C1.75926283 12.63540235 1.75926283 12.63540235 -0.5 8 C-1.83821244 6.90754997 -1.83821244 6.90754997 -3 7 Z " fill="#AB695A" transform="translate(152,166)"/>
<path d="M0 0 C3.68966616 2.76724962 5.94961121 5.48332819 7 10 C6.98995502 14.93208705 6.21147641 19.12408019 3 23 C-1.38733756 25.8916543 -4.79056007 26.63975578 -10 26 C-14.33386187 24.49878599 -16.54893019 22.71889251 -19 18.8125 C-20.2076533 14.2083218 -20.41426545 10.56850597 -19 6 C-13.59709151 -0.86315403 -8.26789483 -2.07702382 0 0 Z M-13 7 C-14.38436887 10.93228703 -14.34997732 14.03241566 -12.9375 17.9375 C-11.09810455 20.21482101 -11.09810455 20.21482101 -8.125 21 C-4.2922473 21 -2.80038204 20.6403602 0 18 C1.38436887 14.06771297 1.34997732 10.96758434 -0.0625 7.0625 C-1.90189545 4.78517899 -1.90189545 4.78517899 -4.875 4 C-8.7077527 4 -10.19961796 4.3596398 -13 7 Z " fill="#8B4433" transform="translate(267,366)"/>
<path d="M0 0 C13.35048816 -0.37084689 13.35048816 -0.37084689 16.39453125 1.3671875 C18.58200519 3.59191769 18.92751449 4.88312306 19 8 C18.06553465 10.03144641 17.06775224 12.03533587 16 14 C16 17.41321235 16.66867466 18.39472885 18.5 21.1875 C18.9640625 21.90292969 19.428125 22.61835938 19.90625 23.35546875 C20.2671875 23.89816406 20.628125 24.44085938 21 25 C17.8125 25.4375 17.8125 25.4375 14 25 C11.82857115 22.9521921 10.31305984 20.67452741 9 18 C9 17.34 9 16.68 9 16 C8.01 16 7.02 16 6 16 C6 18.97 6 21.94 6 25 C4.02 25 2.04 25 0 25 C0 16.75 0 8.5 0 0 Z M6 4 C6 6.31 6 8.62 6 11 C8.41645782 11.16687448 8.41645782 11.16687448 11 11 C11.66 10.34 12.32 9.68 13 9 C12.59471099 6.21762345 12.59471099 6.21762345 11 4 C9.33382885 3.95936168 7.66611905 3.957279 6 4 Z " fill="#8B4433" transform="translate(167,366)"/>
<path d="M0 0 C1.65 0 3.3 0 5 0 C5 3.3 5 6.6 5 10 C8.63 10 12.26 10 16 10 C16 6.7 16 3.4 16 0 C17.98 0 19.96 0 22 0 C22 8.25 22 16.5 22 25 C20.02 25 18.04 25 16 25 C16 21.7 16 18.4 16 15 C12.37 15 8.74 15 5 15 C5 18.3 5 21.6 5 25 C3.35 25 1.7 25 0 25 C0 16.75 0 8.5 0 0 Z " fill="#8B4433" transform="translate(141,366)"/>
<path d="M0 0 C13.34653316 -0.49431604 13.34653316 -0.49431604 16.421875 1.83203125 C18 4 18 4 18.5 6.9375 C17.89649521 10.63396685 16.53641621 12.30505778 14 15 C14.433125 15.55429687 14.86625 16.10859375 15.3125 16.6796875 C16.1478125 17.76636719 16.1478125 17.76636719 17 18.875 C17.556875 19.59429687 18.11375 20.31359375 18.6875 21.0546875 C20 23 20 23 20 25 C16.8125 25.5 16.8125 25.5 13 25 C11.3630105 23.0590602 10.2763128 21.11503295 9.140625 18.84765625 C8.06646603 16.66596914 8.06646603 16.66596914 5 16 C5 18.97 5 21.94 5 25 C3.35 25 1.7 25 0 25 C0 16.75 0 8.5 0 0 Z M5 4 C5 6.31 5 8.62 5 11 C6.99954746 11.04254356 9.00041636 11.04080783 11 11 C12.29633621 9.93354885 12.29633621 9.93354885 12.0625 7.4375 C12.041875 6.633125 12.02125 5.82875 12 5 C9.69 4.67 7.38 4.34 5 4 Z " fill="#8B4433" transform="translate(339,366)"/>
<path d="M0 0 C13.34653316 -0.49431604 13.34653316 -0.49431604 16.421875 1.83203125 C18 4 18 4 18.5 6.9375 C17.89649521 10.63396685 16.53641621 12.30505778 14 15 C14.433125 15.55429687 14.86625 16.10859375 15.3125 16.6796875 C16.1478125 17.76636719 16.1478125 17.76636719 17 18.875 C17.556875 19.59429687 18.11375 20.31359375 18.6875 21.0546875 C20 23 20 23 20 25 C16.8125 25.5 16.8125 25.5 13 25 C11.3630105 23.0590602 10.2763128 21.11503295 9.140625 18.84765625 C8.06646603 16.66596914 8.06646603 16.66596914 5 16 C5 18.97 5 21.94 5 25 C3.35 25 1.7 25 0 25 C0 16.75 0 8.5 0 0 Z M5 4 C5 6.31 5 8.62 5 11 C6.99954746 11.04254356 9.00041636 11.04080783 11 11 C12.29633621 9.93354885 12.29633621 9.93354885 12.0625 7.4375 C12.041875 6.633125 12.02125 5.82875 12 5 C9.69 4.67 7.38 4.34 5 4 Z " fill="#8B4433" transform="translate(277,366)"/>
<path d="M0 0 C5.61 0 11.22 0 17 0 C17 1.32 17 2.64 17 4 C13.37 4 9.74 4 6 4 C6 5.98 6 7.96 6 10 C8.97 10 11.94 10 15 10 C15 11.65 15 13.3 15 15 C12.03 15 9.06 15 6 15 C6 16.98 6 18.96 6 21 C9.63 21 13.26 21 17 21 C17 22.32 17 23.64 17 25 C11.39 25 5.78 25 0 25 C0 16.75 0 8.5 0 0 Z " fill="#8B4433" transform="translate(209,366)"/>
<path d="M0 0 C5.61 0 11.22 0 17 0 C17 1.32 17 2.64 17 4 C13.37 4 9.74 4 6 4 C6 5.98 6 7.96 6 10 C8.64 10 11.28 10 14 10 C14 11.65 14 13.3 14 15 C11.36 15 8.72 15 6 15 C6 16.98 6 18.96 6 21 C9.63 21 13.26 21 17 21 C17 22.32 17 23.64 17 25 C11.39 25 5.78 25 0 25 C0 16.75 0 8.5 0 0 Z " fill="#8B4433" transform="translate(361,366)"/>
<path d="M0 0 C2.375 1 2.375 1 4 2 C3.67 3.65 3.34 5.3 3 7 C0.36 6.67 -2.28 6.34 -5 6 C-5 6.99 -5 7.98 -5 9 C-4.44570313 9.26554687 -3.89140625 9.53109375 -3.3203125 9.8046875 C-2.59585937 10.15789062 -1.87140625 10.51109375 -1.125 10.875 C-0.04605469 11.39707031 -0.04605469 11.39707031 1.0546875 11.9296875 C3 13 3 13 5 15 C5.51675938 18.87569534 5.31754464 20.52368304 3.125 23.8125 C1 26 1 26 -1 27 C-3.05859375 26.94921875 -3.05859375 26.94921875 -5.4375 26.6875 C-6.61119141 26.56955078 -6.61119141 26.56955078 -7.80859375 26.44921875 C-10 26 -10 26 -13 24 C-12.67 22.68 -12.34 21.36 -12 20 C-8.7 20.33 -5.4 20.66 -2 21 C-1.67 19.68 -1.34 18.36 -1 17 C-1.62648438 16.81824219 -2.25296875 16.63648438 -2.8984375 16.44921875 C-3.71570313 16.19785156 -4.53296875 15.94648438 -5.375 15.6875 C-6.18710937 15.44386719 -6.99921875 15.20023437 -7.8359375 14.94921875 C-10 14 -10 14 -12 11 C-12.375 8.0625 -12.375 8.0625 -12 5 C-8.3407271 0.48689676 -5.72492347 -0.34349541 0 0 Z " fill="#8B4433" transform="translate(310,365)"/>
<path d="M0 0 C1.5 2.0625 1.5 2.0625 2 4 C-0.75924185 5.80411967 -1.88972103 6.0127245 -5.25 5.625 C-6.1575 5.41875 -7.065 5.2125 -8 5 C-8 5.99 -8 6.98 -8 8 C-7.36191406 8.27714844 -6.72382813 8.55429687 -6.06640625 8.83984375 C-5.24011719 9.20207031 -4.41382813 9.56429688 -3.5625 9.9375 C-2.73878906 10.29714844 -1.91507813 10.65679687 -1.06640625 11.02734375 C1 12 1 12 2 13 C2.44817927 19.83473389 2.44817927 19.83473389 1.0625 23.4375 C-2.27465954 25.96565116 -5.8819878 26.21635791 -10 26 C-13.0625 24.5625 -13.0625 24.5625 -15 23 C-14.67 21.68 -14.34 20.36 -14 19 C-10.37 19.33 -6.74 19.66 -3 20 C-5.43988538 15.12022924 -7.09088639 14.92858035 -12 13 C-14 11 -14 11 -14.3125 7.0625 C-14.24476371 4.391755 -14.20742614 3.3062005 -12.6875 1.0625 C-8.5601441 -1.53620557 -4.54542808 -1.31552346 0 0 Z " fill="#8B4433" transform="translate(135,366)"/>
<path d="M0 0 C5.61 0 11.22 0 17 0 C17 1.32 17 2.64 17 4 C13.04 4 9.08 4 5 4 C5 5.98 5 7.96 5 10 C7.97 10 10.94 10 14 10 C14 11.65 14 13.3 14 15 C11.03 15 8.06 15 5 15 C5 16.98 5 18.96 5 21 C8.96 21 12.92 21 17 21 C17 22.32 17 23.64 17 25 C11.39 25 5.78 25 0 25 C0 16.75 0 8.5 0 0 Z " fill="#8B4433" transform="translate(381,366)"/>
<path d="M0 0 C5.28 0 10.56 0 16 0 C16 1.32 16 2.64 16 4 C12.37 4 8.74 4 5 4 C5 5.98 5 7.96 5 10 C7.97 10 10.94 10 14 10 C14 11.65 14 13.3 14 15 C11.03 15 8.06 15 5 15 C5 16.98 5 18.96 5 21 C8.63 21 12.26 21 16 21 C16 22.32 16 23.64 16 25 C10.72 25 5.44 25 0 25 C0 16.75 0 8.5 0 0 Z " fill="#8B4433" transform="translate(190,366)"/>
<path d="M0 0 C5.61 0 11.22 0 17 0 C17 1.32 17 2.64 17 4 C13.37 4 9.74 4 6 4 C6 6.31 6 8.62 6 11 C8.97 11 11.94 11 15 11 C15 12.32 15 13.64 15 15 C12.03 15 9.06 15 6 15 C6 18.3 6 21.6 6 25 C4.02 25 2.04 25 0 25 C0 16.75 0 8.5 0 0 Z " fill="#8B4433" transform="translate(229,366)"/>
<path d="M0 0 C6.6 0 13.2 0 20 0 C20 1.32 20 2.64 20 4 C17.69 4 15.38 4 13 4 C13 10.93 13 17.86 13 25 C11.02 25 9.04 25 7 25 C7 18.07 7 11.14 7 4 C4.69 4 2.38 4 0 4 C0 2.68 0 1.36 0 0 Z " fill="#8B4433" transform="translate(316,366)"/>
<path d="M0 0 C0.66 0 1.32 0 2 0 C1.79503906 0.78503906 1.59007812 1.57007813 1.37890625 2.37890625 C1.10949219 3.42949219 0.84007812 4.48007813 0.5625 5.5625 C0.29566406 6.59503906 0.02882812 7.62757813 -0.24609375 8.69140625 C-2.56374279 18.86264323 -4.50455782 31.26790355 0.5625 40.8125 C1.03816406 41.56144531 1.51382813 42.31039062 2.00390625 43.08203125 C2.33261719 43.71496094 2.66132813 44.34789062 3 45 C2.67 45.99 2.34 46.98 2 48 C1.01441551 46.42065361 0.03677459 44.83634827 -0.9375 43.25 C-1.48277344 42.36828125 -2.02804688 41.4865625 -2.58984375 40.578125 C-7.44027223 31.71030561 -5.87714445 19.11643352 -3.20947266 9.7331543 C-2.19952222 6.46523829 -1.13124884 3.22809937 0 0 Z " fill="#B07A6B" transform="translate(152,199)"/>
<path d="M0 0 C1.3125 2.0625 1.3125 2.0625 2 4 C1.01 3.34 0.02 2.68 -1 2 C-3.64632287 2.3121764 -3.64632287 2.3121764 -6 3 C-6.66611173 10.49375699 -3.81697424 16.538156 -1.03125 23.37890625 C1.09335642 28.71993073 1.09335642 28.71993073 0 32 C-1.29849566 28.98205785 -2.58752945 25.96016009 -3.875 22.9375 C-4.23980469 22.08994141 -4.60460937 21.24238281 -4.98046875 20.36914062 C-10.3511225 7.72369226 -10.3511225 7.72369226 -9.3125 2.625 C-7.15408 -1.69184 -4.20023642 -1.40007881 0 0 Z " fill="#B47264" transform="translate(152,166)"/>
<path d="M0 0 C4.39227806 1.50804294 7.9575308 3.85860564 11.6875 6.5625 C12.29674316 7.00215088 12.90598633 7.44180176 13.53369141 7.89477539 C18.95139194 11.86315929 24.53100605 15.96465889 29 21 C29 21.99 29 22.98 29 24 C27.2925002 22.71937515 25.62626404 21.38232443 24 20 C24 19.34 24 18.68 24 18 C23.1181604 17.5822229 23.1181604 17.5822229 22.21850586 17.15600586 C20.14233207 16.07416555 18.3740891 14.90503834 16.50390625 13.50390625 C15.86259766 13.02759766 15.22128906 12.55128906 14.56054688 12.06054688 C13.90119141 11.56619141 13.24183594 11.07183594 12.5625 10.5625 C7.43585806 6.71072843 7.43585806 6.71072843 2.02734375 3.27734375 C1.35832031 2.85582031 0.68929688 2.43429688 0 2 C0 1.34 0 0.68 0 0 Z " fill="#BA7464" transform="translate(278,158)"/>
<path d="M0 0 C4.12398256 0.54013223 6.46177045 1.77908182 9.6875 4.375 C10.45449219 4.98085937 11.22148437 5.58671875 12.01171875 6.2109375 C14.61574277 8.55404753 15.93985053 10.13785767 16.1875 13.6875 C14.32909553 18.87147037 10.22619067 21.63612299 6 25 C4.68 24.34 3.36 23.68 2 23 C2.33 22.34 2.66 21.68 3 21 C3.99 21.33 4.98 21.66 6 22 C9.63790499 19.59898271 11.49720446 18.05129976 13.375 14.125 C12.84135044 9.67792034 10.55560303 8.25076873 7.1484375 5.54296875 C4.83974501 3.88490778 2.47730202 2.39348238 0 1 C0 0.67 0 0.34 0 0 Z " fill="#B77A69" transform="translate(296,83)"/>
<path d="M0 0 C0.99 0 1.98 0 3 0 C4.90581805 1.99686032 6.57347822 3.94692523 8.25 6.125 C8.73509033 6.74793945 9.22018066 7.37087891 9.7199707 8.01269531 C21 22.94792574 21 22.94792574 21 30 C20.34 30 19.68 30 19 30 C18.45472656 28.90042969 17.90945313 27.80085938 17.34765625 26.66796875 C13.1453527 18.36954687 8.9169286 11.01664624 2.75 4.00390625 C1 2 1 2 0 0 Z " fill="#B7806F" transform="translate(309,183)"/>
<path d="M0 0 C0 0.99 0 1.98 0 3 C-1.3203125 4.2890625 -1.3203125 4.2890625 -3.125 5.625 C-11.25573762 12.32958001 -14.5968225 21.25727504 -18 31 C-19.0625 29.1953125 -19.0625 29.1953125 -20 27 C-19.16814043 24.40043885 -18.28045213 22.37927984 -17 20 C-16.59523437 19.22140625 -16.19046875 18.4428125 -15.7734375 17.640625 C-12.08125048 10.99881371 -6.98090493 3.49045246 0 0 Z " fill="#B87661" transform="translate(222,81)"/>
<path d="M0 0 C0.66 0.33 1.32 0.66 2 1 C1 3 1 3 -1.125 4.875 C-3.22281298 6.7614696 -3.22281298 6.7614696 -2.93359375 8.8671875 C-1.6001872 11.91337987 0.43333298 13.25316429 3.0625 15.25 C4.44115234 16.30960937 4.44115234 16.30960937 5.84765625 17.390625 C6.55792969 17.92171875 7.26820313 18.4528125 8 19 C7.34 19.33 6.68 19.66 6 20 C4.56047403 18.89847594 3.12345929 17.7936696 1.6875 16.6875 C0.88699219 16.07261719 0.08648437 15.45773437 -0.73828125 14.82421875 C-4.42390017 11.85153475 -4.42390017 11.85153475 -6 10 C-6 6.21700564 -5.01235583 5.01356127 -2.4375 2.1875 C-1.2309375 1.1046875 -1.2309375 1.1046875 0 0 Z " fill="#B47869" transform="translate(181,300)"/>
<path d="M0 0 C3.11225089 3.59824802 4.56334949 7.53825775 6.1875 11.9375 C6.46013672 12.64068359 6.73277344 13.34386719 7.01367188 14.06835938 C8.42307177 17.8373561 9.36023053 20.90938218 9 25 C7.18807796 22.28211694 6.15480671 20.02594089 5 17 C4.57460937 15.94683594 4.14921875 14.89367187 3.7109375 13.80859375 C3.27007812 12.69613281 2.82921875 11.58367187 2.375 10.4375 C1.92898437 9.32246094 1.48296875 8.20742188 1.0234375 7.05859375 C0 4 0 4 0 0 Z " fill="#B07162" transform="translate(177,255)"/>
<path d="M0 0 C0.66 0.66 1.32 1.32 2 2 C0.5484451 3.67257355 -0.91144409 5.33791758 -2.375 7 C-3.59316406 8.3921875 -3.59316406 8.3921875 -4.8359375 9.8125 C-5.55007812 10.534375 -6.26421875 11.25625 -7 12 C-7.66 12 -8.32 12 -9 12 C-9.66 13.65 -10.32 15.3 -11 17 C-11.6640625 15.21484375 -11.6640625 15.21484375 -12 13 C-10.9609375 11.25390625 -10.9609375 11.25390625 -9.375 9.5625 C-8.82199219 8.96308594 -8.26898438 8.36367187 -7.69921875 7.74609375 C-7.13847656 7.16988281 -6.57773438 6.59367188 -6 6 C-5.51144531 5.49597656 -5.02289063 4.99195313 -4.51953125 4.47265625 C-3.36095546 3.30049012 -2.18215635 2.14838045 -1 1 C-0.67 0.67 -0.34 0.34 0 0 Z " fill="#F1DFCF" transform="translate(209,179)"/>
<path d="M0 0 C0.66 0 1.32 0 2 0 C0.94513949 6.12096691 -0.65217026 10.75506674 -4 16 C-4.99 15.67 -5.98 15.34 -7 15 C-6.57847656 14.25234375 -6.15695312 13.5046875 -5.72265625 12.734375 C-5.17480469 11.74953125 -4.62695312 10.7646875 -4.0625 9.75 C-3.51722656 8.77546875 -2.97195313 7.8009375 -2.41015625 6.796875 C-1.23389165 4.46389591 -0.47898309 2.54649238 0 0 Z " fill="#EDDACC" transform="translate(280,280)"/>
<path d="M0 0 C1.49828872 3.88235819 0.43110582 6.43449288 -0.9375 10.25 C-1.31777344 11.32765625 -1.69804687 12.4053125 -2.08984375 13.515625 C-2.39019531 14.33546875 -2.69054687 15.1553125 -3 16 C-3.66 16 -4.32 16 -5 16 C-4.68917128 14.24970238 -4.37626821 12.49977306 -4.0625 10.75 C-3.88847656 9.77546875 -3.71445313 8.8009375 -3.53515625 7.796875 C-2.5632033 2.71717929 -2.5632033 2.71717929 -2 1 C-1.34 0.67 -0.68 0.34 0 0 Z " fill="#EDDCCF" transform="translate(217,159)"/>
<path d="M0 0 C3.89283238 1.43045578 7.29321861 3.24678267 10.8125 5.4375 C11.78832031 6.03433594 12.76414063 6.63117188 13.76953125 7.24609375 C14.50558594 7.82488281 15.24164063 8.40367187 16 9 C16 9.99 16 10.98 16 12 C10.59427347 8.43295597 5.19556007 4.86903409 0 1 C0 0.67 0 0.34 0 0 Z " fill="#B77465" transform="translate(243,135)"/>
<path d="M0 0 C0.66 0 1.32 0 2 0 C2.33 5.28 2.66 10.56 3 16 C0.79718527 11.59437055 -0.12437287 9.70108364 -0.0625 4.875 C-0.05347656 3.96492188 -0.04445312 3.05484375 -0.03515625 2.1171875 C-0.02355469 1.41851562 -0.01195312 0.71984375 0 0 Z " fill="#D05046" transform="translate(201,114)"/>
<path d="M0 0 C-1.19625 0.515625 -2.3925 1.03125 -3.625 1.5625 C-7.69933536 3.56354769 -10.06794844 6.01213257 -12.7734375 9.609375 C-13.17820313 10.06828125 -13.58296875 10.5271875 -14 11 C-14.66 11 -15.32 11 -16 11 C-14.60306939 6.11074285 -12.06012438 3.94558043 -8 1 C-3.66055046 -1.22018349 -3.66055046 -1.22018349 0 0 Z " fill="#BA6E5D" transform="translate(245,83)"/>
<path d="M0 0 C0.99 0 1.98 0 3 0 C5.04296875 2.1171875 5.04296875 2.1171875 7.1875 4.875 C7.90292969 5.77992188 8.61835938 6.68484375 9.35546875 7.6171875 C11 10 11 10 11 12 C10.34 12 9.68 12 9 12 C7.58303493 10.42945794 6.23893184 8.79253336 4.9375 7.125 C4.22464844 6.22007812 3.51179688 5.31515625 2.77734375 4.3828125 C1 2 1 2 0 0 Z " fill="#B57565" transform="translate(309,183)"/>
<path d="M0 0 C1.25955231 3.77865693 0.48087189 5.03411786 -0.9375 8.6875 C-1.31777344 9.68136719 -1.69804687 10.67523438 -2.08984375 11.69921875 C-2.39019531 12.45847656 -2.69054687 13.21773437 -3 14 C-4.078125 12.22265625 -4.078125 12.22265625 -5 10 C-3.69707075 6.28665164 -2.18173966 3.27260948 0 0 Z " fill="#C38B6A" transform="translate(207,98)"/>
<path d="M0 0 C0.33 0.99 0.66 1.98 1 3 C-1.97 4.65 -4.94 6.3 -8 8 C-8.66 7.34 -9.32 6.68 -10 6 C-9.36191406 5.65066406 -8.72382813 5.30132812 -8.06640625 4.94140625 C-7.24011719 4.48636719 -6.41382813 4.03132813 -5.5625 3.5625 C-4.73878906 3.11003906 -3.91507813 2.65757812 -3.06640625 2.19140625 C-1.07691202 1.16337603 -1.07691202 1.16337603 0 0 Z " fill="#EBD6CA" transform="translate(258,310)"/>
<path d="M0 0 C3.81552617 1.49895671 5.53745046 3.7986856 8 7 C8.66 7.33 9.32 7.66 10 8 C10 8.66 10 9.32 10 10 C6.82028869 8.62442924 4.95149011 7.10041354 2.75 4.4375 C1.96882812 3.50744141 1.96882812 3.50744141 1.171875 2.55859375 C0 1 0 1 0 0 Z " fill="#BA7867" transform="translate(229,121)"/>
<path d="M0 0 C0.66 0 1.32 0 2 0 C3.76462683 3.08809695 4 4.23312136 4 8 C4.99 8 5.98 8 7 8 C7 8.99 7 9.98 7 11 C6.01 11 5.02 11 4 11 C2.68 7.37 1.36 3.74 0 0 Z " fill="#B47771" transform="translate(190,291)"/>
<path d="M0 0 C0.625 1.875 0.625 1.875 1 4 C0.34 4.66 -0.32 5.32 -1 6 C-2.32 6 -3.64 6 -5 6 C-5 4.35 -5 2.7 -5 1 C-4.34 1 -3.68 1 -3 1 C-2.67 1.66 -2.34 2.32 -2 3 C-1.34 2.01 -0.68 1.02 0 0 Z " fill="#A57267" transform="translate(173,282)"/>
<path d="M0 0 C3.41569282 4.5542571 3.41569282 4.5542571 3.375 8.5625 C3.38273438 9.32691406 3.39046875 10.09132813 3.3984375 10.87890625 C3 13 3 13 0 16 C0 10.72 0 5.44 0 0 Z " fill="#935A4F" transform="translate(174,268)"/>
<path d="M0 0 C1.3125 2.0625 1.3125 2.0625 2 4 C1.01 3.34 0.02 2.68 -1 2 C-4.63939932 2.31730524 -4.63939932 2.31730524 -8 3 C-8 2.01 -8 1.02 -8 0 C-4.66411172 -1.11196276 -3.29427581 -1.09809194 0 0 Z " fill="#9A6D62" transform="translate(152,166)"/>
<path d="M0 0 C3.16115776 1.36983503 3.9927092 1.9890638 6 5 C4.02 5.33 2.04 5.66 0 6 C0 4.02 0 2.04 0 0 Z " fill="#E7C6B6" transform="translate(216,154)"/>
<path d="M0 0 C0 4.38968456 -2.12805101 5.76905739 -5 9 C-5.99 8.67 -6.98 8.34 -8 8 C-5.36 5.36 -2.72 2.72 0 0 Z " fill="#C47D5F" transform="translate(310,303)"/>
<path d="M0 0 C2.31 1.65 4.62 3.3 7 5 C6.67 5.66 6.34 6.32 6 7 C2.535 5.02 2.535 5.02 -1 3 C-0.67 2.01 -0.34 1.02 0 0 Z " fill="#BC6252" transform="translate(239,129)"/>
</svg>
